<svg xmlns="http://www.w3.org/2000/svg" version="1.1" viewBox="0 0 325 325">

<g id="#adadad">
<path fill="#adadad" opacity="1.00" d=" M 0.75 37.84 C 19.74 26.40 38.69 14.87 57.76 3.56 C 57.80 91.13 57.66 178.70 57.83 266.27 C 49.19 271.64 40.40 276.76 31.74 282.07 C 21.40 288.24 11.14 294.55 0.78 300.67 C 0.71 213.06 0.77 125.45 0.75 37.84 Z"/>
</g>
<g id="#818181">
<path fill="white" opacity="1.00" d=" M 57.76 3.56 C 140.83 3.42 223.91 3.54 306.99 3.50 C 317.25 2.88 326.88 11.64 326.92 21.97 C 327.11 35.56 326.94 49.16 327.00 62.76 C 326.98 130.58 327.04 198.39 326.97 266.21 C 237.26 266.31 147.54 266.19 57.83 266.27 C 57.66 178.70 57.80 91.13 57.76 3.56 M 117.03 62.23 C 116.96 110.82 117.02 159.41 117.00 208.00 C 127.50 208.00 138.00 208.00 148.50 208.00 C 148.51 175.82 148.50 143.64 148.50 111.46 C 157.36 143.54 165.45 175.85 174.06 208.00 C 185.47 208.02 196.89 207.96 208.30 208.03 C 216.52 177.25 224.41 146.37 232.71 115.60 C 232.81 146.40 232.71 177.20 232.75 207.99 C 244.33 208.01 255.91 208.00 267.49 208.00 C 267.55 159.45 267.41 110.90 267.56 62.35 C 252.68 62.12 237.79 62.31 222.91 62.25 C 212.79 100.98 202.56 139.68 192.28 178.36 C 182.37 139.70 172.85 100.94 163.06 62.25 C 147.71 62.23 132.37 62.27 117.03 62.23 Z"/>
</g>

<g id="#36697fff">
<path fill="#a5a5a5 " opacity="1.00" d=" M 327.00 62.76 C 335.58 62.75 344.16 62.75 352.75 62.76 C 352.70 150.17 352.86 237.59 352.67 325.00 L 51.40 325.00 C 47.82 324.50 44.11 323.95 40.98 322.01 C 35.39 318.76 31.70 312.45 31.75 305.96 C 31.71 298.00 31.79 290.03 31.74 282.07 C 40.40 276.76 49.19 271.64 57.83 266.27 C 147.54 266.19 237.26 266.31 326.97 266.21 C 327.04 198.39 326.98 130.58 327.00 62.76 Z"/>
</g>
</svg>